<svg width="16" height="17" viewBox="0 0 16 17" fill="none" xmlns="http://www.w3.org/2000/svg">
<path fill-rule="evenodd" clip-rule="evenodd" d="M11.793 0.75C11.793 0.335786 11.4572 0 11.043 0C10.6288 0 10.293 0.335786 10.293 0.75V1.5H5.45703V0.75C5.45703 0.335786 5.12124 0 4.70703 0C4.29282 0 3.95703 0.335786 3.95703 0.75V1.5H2.33333C1.08339 1.5 0 2.46967 0 3.75V6.75V14.25C0 15.5303 1.08339 16.5 2.33333 16.5H13.4167C14.6666 16.5 15.75 15.5303 15.75 14.25V6.75V3.75C15.75 2.46967 14.6666 1.5 13.4167 1.5H11.793V0.75ZM14.25 6V3.75C14.25 3.37348 13.9156 3 13.4167 3H11.793V3.75C11.793 4.16421 11.4572 4.5 11.043 4.5C10.6288 4.5 10.293 4.16421 10.293 3.75V3H5.45703V3.75C5.45703 4.16421 5.12124 4.5 4.70703 4.5C4.29282 4.5 3.95703 4.16421 3.95703 3.75V3H2.33333C1.83437 3 1.5 3.37348 1.5 3.75V6H14.25ZM1.5 7.5H14.25V14.25C14.25 14.6265 13.9156 15 13.4167 15H2.33333C1.83437 15 1.5 14.6265 1.5 14.25V7.5Z" fill="#06222E"/>
</svg>
